subject20_rfs_trial11_ground_reaction
version=1
nRows=21
nColumns=19
inDegrees=no
endheader
time	ground_force_r_vx	ground_force_r_vy	ground_force_r_vz	ground_force_r_px	ground_force_r_py	ground_force_r_pz	ground_torque_r_x	ground_torque_r_y	ground_torque_r_z	ground_force_l_vx	ground_force_l_vy	ground_force_l_vz	ground_force_l_px	ground_force_l_py	ground_force_l_pz	ground_torque_l_x	ground_torque_l_y	ground_torque_l_z
      0.72500000	      0.00000000	      0.00000000	      0.00000000	   1088.52034600	      0.00000000	    876.70712100	      0.00000000	      0.00000000	      0.00000000	   -112.26295800	   1070.72712300	     57.48056400	      1.54209600	      0.00000000	     -0.23967200	      0.00000000	     -3.21521500	      0.00000000
      0.73000000	      0.00000000	      0.00000000	      0.00000000	   1171.51996400	      0.00000000	    945.15107500	      0.00000000	      0.00000000	      0.00000000	   -100.34216800	   1124.26025800	     65.88816600	      1.54508000	      0.00000000	     -0.23974400	      0.00000000	     -2.77823300	      0.00000000
      0.73500000	      0.00000000	      0.00000000	      0.00000000	   1258.63680600	      0.00000000	   1017.06794400	      0.00000000	      0.00000000	      0.00000000	    -91.38944300	   1176.02916900	     77.58817900	      1.54788400	      0.00000000	     -0.23986900	      0.00000000	     -2.40828900	      0.00000000
      0.74000000	      0.00000000	      0.00000000	      0.00000000	   1349.97052800	      0.00000000	   1092.54369500	      0.00000000	      0.00000000	      0.00000000	    -80.36405200	   1210.33079500	     83.16888000	      1.55088900	      0.00000000	     -0.23976000	      0.00000000	     -2.43748000	      0.00000000
      0.74500000	      0.00000000	      0.00000000	      0.00000000	   1445.62078100	      0.00000000	   1171.66429300	      0.00000000	      0.00000000	      0.00000000	    -69.54357300	   1232.30669600	     80.36083600	      1.55416500	      0.00000000	     -0.23917600	      0.00000000	     -2.95225300	      0.00000000
      0.75000000	      0.00000000	      0.00000000	      0.00000000	   1545.68722100	      0.00000000	   1254.51570700	      0.00000000	      0.00000000	      0.00000000	    -59.20886800	   1248.14265600	     74.09923100	      1.55732100	      0.00000000	     -0.23848300	      0.00000000	     -3.65488200	      0.00000000
      0.75500000	      0.00000000	      0.00000000	      0.00000000	   1650.26950000	      0.00000000	   1341.18390200	      0.00000000	      0.00000000	      0.00000000	    -47.04959500	   1257.86466000	     69.69348800	      1.56036300	      0.00000000	     -0.23789300	      0.00000000	     -4.13150400	      0.00000000
      0.76000000	      0.00000000	      0.00000000	      0.00000000	   1759.46727300	      0.00000000	   1431.75484600	      0.00000000	      0.00000000	      0.00000000	    -34.87420100	   1262.53619900	     70.86209200	      1.56335600	      0.00000000	     -0.23766200	      0.00000000	     -4.12342100	      0.00000000
      0.76500000	      0.00000000	      0.00000000	      0.00000000	   1873.38019300	      0.00000000	   1526.31450500	      0.00000000	      0.00000000	      0.00000000	    -22.92892300	   1261.95447900	     76.84961300	      1.56623100	      0.00000000	     -0.23764100	      0.00000000	     -3.74731500	      0.00000000
      0.77000000	      0.00000000	      0.00000000	      0.00000000	   1992.10791300	      0.00000000	   1624.94884500	      0.00000000	      0.00000000	      0.00000000	    -11.66992200	   1255.36968700	     82.31308000	      1.56906400	      0.00000000	     -0.23764300	      0.00000000	     -3.28219000	      0.00000000
      0.77500000	      0.00000000	      0.00000000	      0.00000000	   2115.75008900	      0.00000000	   1727.74383500	      0.00000000	      0.00000000	      0.00000000	      0.95670400	   1243.68234700	     84.45507500	      1.57185400	      0.00000000	     -0.23750100	      0.00000000	     -2.91415600	      0.00000000
      0.78000000	      0.00000000	      0.00000000	      0.00000000	   2244.40637200	      0.00000000	   1834.78543900	      0.00000000	      0.00000000	      0.00000000	     15.06393900	   1226.96817000	     84.92889800	      1.57440600	      0.00000000	     -0.23731500	      0.00000000	     -2.55364100	      0.00000000
      0.78500000	      0.00000000	      0.00000000	      0.00000000	   2378.17641700	      0.00000000	   1946.15962600	      0.00000000	      0.00000000	      0.00000000	     27.97602100	   1205.53751700	     86.06179900	      1.57684200	      0.00000000	     -0.23709100	      0.00000000	     -2.10715800	      0.00000000
      0.79000000	      0.00000000	      0.00000000	      0.00000000	   2517.15987800	      0.00000000	   2061.95236100	      0.00000000	      0.00000000	      0.00000000	     40.04726800	   1180.31438800	     86.36858200	      1.57918900	      0.00000000	     -0.23676200	      0.00000000	     -1.75112900	      0.00000000
      0.79500000	      0.00000000	      0.00000000	      0.00000000	   2661.45640800	      0.00000000	   2182.24961300	      0.00000000	      0.00000000	      0.00000000	     53.14273700	   1150.44775800	     84.05671200	      1.58136500	      0.00000000	     -0.23635500	      0.00000000	     -1.49389700	      0.00000000
      0.80000000	      0.00000000	      0.00000000	      0.00000000	   2811.16566200	      0.00000000	   2307.13734600	      0.00000000	      0.00000000	      0.00000000	     66.74933400	   1113.06036200	     79.99707200	      1.58351500	      0.00000000	     -0.23574700	      0.00000000	     -1.22722300	      0.00000000
      0.80500000	      0.00000000	      0.00000000	      0.00000000	   2966.38729200	      0.00000000	   2436.70152800	      0.00000000	      0.00000000	      0.00000000	     77.61714700	   1070.99020300	     75.54626100	      1.58567600	      0.00000000	     -0.23515400	      0.00000000	     -0.95111600	      0.00000000
      0.81000000	      0.00000000	      0.00000000	      0.00000000	   3127.22095200	      0.00000000	   2571.02812700	      0.00000000	      0.00000000	      0.00000000	     86.92276500	   1025.69436400	     71.01018900	      1.58775800	      0.00000000	     -0.23450500	      0.00000000	     -0.62755300	      0.00000000
      0.81500000	      0.00000000	      0.00000000	      0.00000000	   3293.76629600	      0.00000000	   2710.20310700	      0.00000000	      0.00000000	      0.00000000	     95.82373100	    977.08030300	     66.67195500	      1.58948300	      0.00000000	     -0.23376800	      0.00000000	     -0.25006000	      0.00000000
      0.82000000	      0.00000000	      0.00000000	      0.00000000	   3466.12297900	      0.00000000	   2854.31243700	      0.00000000	      0.00000000	      0.00000000	    105.22402500	    924.41967800	     60.81989000	      1.59117200	      0.00000000	     -0.23295700	      0.00000000	      0.00585000	      0.00000000
      0.82500000	      0.00000000	      0.00000000	      0.00000000	   3644.39065300	      0.00000000	   3003.44208300	      0.00000000	      0.00000000	      0.00000000	    113.14705600	    868.74173200	     54.61086600	      1.59277700	      0.00000000	     -0.23223200	      0.00000000	      0.17147200	      0.00000000
